<svg xmlns="http://www.w3.org/2000/svg" width="405" height="45" viewBox="0 0 405 45">
  <g>
    <path fill="rgb(0,105,241)" fill-rule="evenodd" d="M36.9230194 45h8.42652894L23.05412292 0 0 45h6.80799866c-2.18502808-3.8583374-.94078064-9.41552734 2.18502807-16.559021l20.05982972-.06140136L36.9230194 45zM19.24043275 8.27947998l9.620224 19.78277588-19.7361145.0614624c2.4986267-5.62884521 6.12011718-12.19927978 10.1158905-19.84423828z"/>
    <path fill="rgb(0,105,241)" fill-rule="evenodd" d="M88.26116943 45V1.0131836c9.36917115.06134033 14.23458863 3.97418212 18.04675293 9.77874755l.00003052.0154419h.01010132l-.01010132-.0154419-.00003052-10.03460693h-43.9737854v10.05004883c3.81369019-6.2531128 8.68954468-9.73278809 18.05688477-9.79418946V45h7.8701477z"/>
    <path fill="rgb(0,105,241)" fill-rule="evenodd" d="M170.21006095 33.4967023V45h-35.41575083V.75733455l34.72786992-.0614055v10.11143961c-4.99725247-8.46372527-14.49607853-9.79417785-26.92851434-9.79417785v20.72435752c7.61726946-.19445076 16.86319812-.81874005 23.05412629-3.28519445v6.6931999c-6.18081227-2.4664544-15.42674094-3.02933818-23.05412629-3.22378894v22.81214464c13.93970427-.17398226 23.18563293-2.83488742 27.61639525-11.23720718z"/>
    <path fill="rgb(0,105,241)" fill-rule="evenodd" d="M234.17286942 33.4967023V45h-34.92007194V.75733455h7.80947148v43.98680918c13.92958837-.1842165 22.74053352-2.84512167 27.11060046-11.24744143z"/>
    <path fill="rgb(0,105,241)" fill-rule="evenodd" d="M262.52772505.75733455h7.80947147V45h-7.80947147V.75733455z"/>
    <path fill="rgb(0,105,241)" fill-rule="evenodd" d="M335.85785293 33.4967023V45h-35.41575082V.75733455l34.72786992-.0614055v10.11143961c-4.99725248-8.46372527-14.49607853-9.79417785-26.92851434-9.79417785v20.72435752c7.61726946-.19445076 16.86319812-.81874005 23.05412628-3.28519445v6.6931999c-6.18081226-2.4664544-15.42674093-3.02933818-23.05412628-3.22378894v22.81214464c13.93970426-.17398226 23.18563293-2.83488742 27.61639524-11.23720718z"/>
    <path fill="rgb(0,105,241)" fill-rule="evenodd" d="M396.38128662 45H405c-1.06213379-2.08776855-1.99279785-6.82623291-2.6907959-11.94335938-1.06219482-7.7166748-5.05792236-10.6845703-16.42822265-11.00183105 9.36730957-.56286621 17.55108642-3.34661865 17.55108642-10.55151367 0-7.58361817-7.24298096-10.74597168-19.3618164-10.74597168h-19.17974854V45h7.80944824V22.24926758l11.43096924.06140137c6.93951416 0 8.93237305 3.73547363 9.9338379 10.74597167.6878662 4.8612671 1.4364624 9.73272706 2.31652831 11.94335938zm-.93066406-33.4967041c0 7.20489502-5.43225098 10.4901123-13.86889649 10.4901123h-8.87164306V1.0131836h10.74310303c7.4958496 0 11.99743652 3.28521728 11.99743652 10.4901123z"/>
  </g>
</svg>
