<svg xmlns="http://www.w3.org/2000/svg" width="67.352" height="74.705" viewBox="0 0 67.352 74.705">
  <g>
    <g>
      <path fill="none" stroke="rgb(0,106,241)" stroke-dasharray="0 0 0 0" stroke-linecap="round" stroke-linejoin="miter" stroke-width="1" d="M52.22731505 72.35231505h-47.25c-1.4525 0-2.625-1.1725-2.625-2.625v-64.75c0-1.4525 1.1725-2.625 2.625-2.625h29.68875c.60375 0 1.18125.23625 1.60125.665l8.61 8.61 9.30125 9.30125c.42875.42875.665 1.00625.665 1.60125v47.1975c.00875 1.4525-1.16375 2.625-2.61625 2.625h0z"/>
      <path fill="none" stroke="rgb(0,106,241)" stroke-dasharray="0 0 0 0" stroke-linecap="round" stroke-linejoin="miter" stroke-width="1" d="M35.61106505 2.5866948v16.38187025c0 1.4525 1.1725 2.625 2.625 2.625H54.6067617"/>
    </g>
    <g>
      <path fill="rgb(0,106,241)" fill-rule="evenodd" d="M45.35231505 40.35231505h19c1.65574508 0 3 1.34425493 3 3v19c0 1.65574508-1.34425492 3-3 3h-19c-1.65574507 0-3-1.34425492-3-3v-19c0-1.65574507 1.34425493-3 3-3z"/>
      <text font-size="0" style="white-space:pre">
        <tspan x="49.761" y="57.352" fill="rgb(255,255,255)" font-family="News Cycle" font-size="12" font-weight="700" style="white-space:pre;text-transform:uppercase" letter-spacing=".5">AI</tspan>
      </text>
    </g>
  </g>
</svg>
